<svg width="247" height="34" viewBox="0 0 247 34" fill="none" xmlns="http://www.w3.org/2000/svg">
<path d="M18 33H34V30.414H26.723C24.1287 32.106 21.0973 33.0047 18 33ZM18 27.182C17.1431 27.1809 16.3217 26.8401 15.7158 26.2342C15.1099 25.6283 14.7691 24.8069 14.768 23.95C14.7685 23.0928 15.1091 22.2708 15.7151 21.6645C16.321 21.0582 17.1428 20.7171 18 20.716V13.282C17.1431 13.2809 16.3217 12.9401 15.7158 12.3342C15.1099 11.7283 14.7691 10.9069 14.768 10.05C14.7688 9.19297 15.1095 8.37126 15.7154 7.76515C16.3214 7.15905 17.143 6.81806 18 6.817V1C9.163 1 2 8.163 2 17C2 25.837 9.163 33 18 33V27.182V27.182ZM11.05 20.232C10.1931 20.2309 9.37169 19.8901 8.7658 19.2842C8.15991 18.6783 7.81906 17.8569 7.818 17C7.81906 16.1431 8.15991 15.3217 8.7658 14.7158C9.37169 14.1099 10.1931 13.7691 11.05 13.768C11.9072 13.7685 12.7292 14.1091 13.3355 14.7151C13.9418 15.321 14.2829 16.1428 14.284 17C14.2829 17.8569 13.9421 18.6783 13.3362 19.2842C12.7303 19.8901 11.9089 20.2309 11.052 20.232H11.05Z" fill="#E30B13"/>
<path d="M34 17C34 8.163 26.837 1 18 1V6.818C18.8569 6.81906 19.6783 7.15991 20.2842 7.7658C20.8901 8.37169 21.2309 9.19315 21.232 10.05C21.2315 10.9072 20.8909 11.7292 20.2849 12.3355C19.679 12.9418 18.8572 13.2829 18 13.284V20.718C18.857 20.7191 19.6786 21.0601 20.2846 21.6662C20.8905 22.2723 21.2312 23.094 21.232 23.951C21.2304 24.8075 20.8893 25.6285 20.2835 26.2339C19.6777 26.8394 18.8565 27.1799 18 27.181V33C21.218 33 24.214 32.05 26.723 30.414C31.103 27.56 34 22.618 34 17ZM24.95 13.768C25.8067 13.7693 26.6279 14.1103 27.2336 14.7162C27.8392 15.322 28.1799 16.1433 28.181 17C28.1799 17.8569 27.8391 18.6783 27.2332 19.2842C26.6273 19.8901 25.8059 20.2309 24.949 20.232C24.092 20.2312 23.2703 19.8905 22.6642 19.2846C22.058 18.6786 21.7171 17.857 21.716 17C21.7171 16.143 22.058 15.3214 22.6642 14.7154C23.2703 14.1095 24.092 13.7688 24.949 13.768H24.95Z" fill="#CE080F"/>
<path d="M39.6723 11.1818H43.8083L47.3168 19.7372H47.4787L50.9873 11.1818H55.1233V25H51.8711V16.5121H51.7564L48.4368 24.9123H46.3587L43.0391 16.4648H42.9244V25H39.6723V11.1818ZM70.2487 18.0909C70.2487 19.6113 69.9563 20.9 69.3716 21.957C68.7868 23.0141 67.9952 23.817 66.9966 24.3658C66.0025 24.9145 64.887 25.1889 63.65 25.1889C62.4085 25.1889 61.2907 24.9123 60.2967 24.359C59.3026 23.8058 58.5132 23.0028 57.9284 21.9503C57.3481 20.8932 57.058 19.6068 57.058 18.0909C57.058 16.5705 57.3481 15.2818 57.9284 14.2248C58.5132 13.1677 59.3026 12.3648 60.2967 11.8161C61.2907 11.2673 62.4085 10.9929 63.65 10.9929C64.887 10.9929 66.0025 11.2673 66.9966 11.8161C67.9952 12.3648 68.7868 13.1677 69.3716 14.2248C69.9563 15.2818 70.2487 16.5705 70.2487 18.0909ZM66.8347 18.0909C66.8347 17.1913 66.7065 16.4311 66.4501 15.8104C66.1982 15.1896 65.8338 14.7196 65.357 14.4002C64.8847 14.0808 64.3157 13.9212 63.65 13.9212C62.9888 13.9212 62.4198 14.0808 61.943 14.4002C61.4662 14.7196 61.0996 15.1896 60.8432 15.8104C60.5913 16.4311 60.4653 17.1913 60.4653 18.0909C60.4653 18.9905 60.5913 19.7507 60.8432 20.3714C61.0996 20.9922 61.4662 21.4622 61.943 21.7816C62.4198 22.101 62.9888 22.2607 63.65 22.2607C64.3157 22.2607 64.8847 22.101 65.357 21.7816C65.8338 21.4622 66.1982 20.9922 66.4501 20.3714C66.7065 19.7507 66.8347 18.9905 66.8347 18.0909ZM72.1986 25V11.1818H77.9067C78.9413 11.1818 79.8342 11.3685 80.5854 11.7418C81.341 12.1107 81.9235 12.6415 82.3329 13.3342C82.7422 14.0224 82.9469 14.8388 82.9469 15.7834C82.9469 16.7415 82.7377 17.5556 82.3194 18.2259C81.9011 18.8916 81.3073 19.3999 80.5381 19.7507C79.769 20.0971 78.8581 20.2702 77.8055 20.2702H74.1958V17.6388H77.1848C77.6886 17.6388 78.1092 17.5736 78.4465 17.4432C78.7884 17.3082 79.047 17.1058 79.2224 16.8359C79.3979 16.5616 79.4856 16.2107 79.4856 15.7834C79.4856 15.3561 79.3979 15.003 79.2224 14.7241C79.047 14.4407 78.7884 14.2293 78.4465 14.0898C78.1047 13.9459 77.6841 13.8739 77.1848 13.8739H75.5385V25H72.1986ZM79.9781 18.6847L83.4192 25H79.7757L76.4021 18.6847H79.9781ZM84.7787 25V11.1818H94.4137V13.8942H88.1186V16.728H93.9211V19.4471H88.1186V22.2876H94.4137V25H84.7787ZM96.5053 25V11.1818H99.8451V22.2876H105.594V25H96.5053ZM107.323 25V11.1818H110.663V22.2876H116.411V25H107.323ZM130.644 18.0909C130.644 19.6113 130.352 20.9 129.767 21.957C129.182 23.0141 128.391 23.817 127.392 24.3658C126.398 24.9145 125.282 25.1889 124.045 25.1889C122.804 25.1889 121.686 24.9123 120.692 24.359C119.698 23.8058 118.909 23.0028 118.324 21.9503C117.744 20.8932 117.454 19.6068 117.454 18.0909C117.454 16.5705 117.744 15.2818 118.324 14.2248C118.909 13.1677 119.698 12.3648 120.692 11.8161C121.686 11.2673 122.804 10.9929 124.045 10.9929C125.282 10.9929 126.398 11.2673 127.392 11.8161C128.391 12.3648 129.182 13.1677 129.767 14.2248C130.352 15.2818 130.644 16.5705 130.644 18.0909ZM127.23 18.0909C127.23 17.1913 127.102 16.4311 126.846 15.8104C126.594 15.1896 126.229 14.7196 125.753 14.4002C125.28 14.0808 124.711 13.9212 124.045 13.9212C123.384 13.9212 122.815 14.0808 122.338 14.4002C121.862 14.7196 121.495 15.1896 121.239 15.8104C120.987 16.4311 120.861 17.1913 120.861 18.0909C120.861 18.9905 120.987 19.7507 121.239 20.3714C121.495 20.9922 121.862 21.4622 122.338 21.7816C122.815 22.101 123.384 22.2607 124.045 22.2607C124.711 22.2607 125.28 22.101 125.753 21.7816C126.229 21.4622 126.594 20.9922 126.846 20.3714C127.102 19.7507 127.23 18.9905 127.23 18.0909ZM145.137 16.1882H141.764C141.719 15.8419 141.626 15.5292 141.487 15.2504C141.347 14.9715 141.163 14.7331 140.934 14.5352C140.704 14.3372 140.432 14.1866 140.117 14.0831C139.807 13.9751 139.463 13.9212 139.085 13.9212C138.415 13.9212 137.837 14.0853 137.351 14.4137C136.87 14.7421 136.499 15.2166 136.238 15.8374C135.981 16.4581 135.853 17.2093 135.853 18.0909C135.853 19.0085 135.983 19.7777 136.244 20.3984C136.51 21.0147 136.881 21.4802 137.358 21.7951C137.839 22.1055 138.408 22.2607 139.065 22.2607C139.434 22.2607 139.769 22.2134 140.07 22.119C140.376 22.0245 140.644 21.8873 140.873 21.7074C141.107 21.523 141.298 21.3003 141.446 21.0394C141.599 20.774 141.705 20.4749 141.764 20.142L145.137 20.1623C145.079 20.774 144.901 21.3768 144.604 21.9705C144.312 22.5643 143.909 23.1063 143.396 23.5966C142.884 24.0824 142.258 24.4692 141.521 24.7571C140.787 25.045 139.946 25.1889 138.997 25.1889C137.747 25.1889 136.627 24.9145 135.637 24.3658C134.652 23.8125 133.874 23.0073 133.303 21.9503C132.731 20.8932 132.446 19.6068 132.446 18.0909C132.446 16.5705 132.736 15.2818 133.316 14.2248C133.896 13.1677 134.681 12.3648 135.671 11.8161C136.66 11.2673 137.769 10.9929 138.997 10.9929C139.834 10.9929 140.608 11.1098 141.318 11.3438C142.029 11.5732 142.654 11.9105 143.194 12.3558C143.734 12.7966 144.172 13.3387 144.51 13.9819C144.847 14.6251 145.056 15.3606 145.137 16.1882ZM150.388 11.1818V25H147.048V11.1818H150.388ZM164.245 11.1818V25H161.411L155.912 17.0249H155.825V25H152.485V11.1818H155.359L160.797 19.1435H160.912V11.1818H164.245ZM166.345 25V11.1818H175.98V13.8942H169.685V16.728H175.488V19.4471H169.685V22.2876H175.98V25H166.345ZM178.072 11.1818H182.208L185.716 19.7372H185.878L189.387 11.1818H193.523V25H190.271V16.5121H190.156L186.836 24.9123H184.758L181.439 16.4648H181.324V25H178.072V11.1818ZM198.595 25H195.005L199.668 11.1818H204.114L208.776 25H205.187L201.941 14.6634H201.833L198.595 25ZM198.116 19.5618H205.619V22.0987H198.116V19.5618ZM212.12 25.1957C211.634 25.1957 211.218 25.0247 210.871 24.6829C210.529 24.341 210.361 23.9272 210.365 23.4414C210.361 22.9646 210.529 22.5575 210.871 22.2202C211.218 21.8783 211.634 21.7074 212.12 21.7074C212.578 21.7074 212.983 21.8783 213.334 22.2202C213.689 22.5575 213.869 22.9646 213.874 23.4414C213.869 23.7653 213.784 24.0599 213.617 24.3253C213.455 24.5907 213.242 24.8021 212.976 24.9595C212.716 25.117 212.43 25.1957 212.12 25.1957ZM216.053 25V11.1818H221.761C222.796 11.1818 223.689 11.3685 224.44 11.7418C225.196 12.1107 225.778 12.6415 226.187 13.3342C226.597 14.0224 226.801 14.8388 226.801 15.7834C226.801 16.7415 226.592 17.5556 226.174 18.2259C225.756 18.8916 225.162 19.3999 224.393 19.7507C223.623 20.0971 222.713 20.2702 221.66 20.2702H218.05V17.6388H221.039C221.543 17.6388 221.964 17.5736 222.301 17.4432C222.643 17.3082 222.902 17.1058 223.077 16.8359C223.252 16.5616 223.34 16.2107 223.34 15.7834C223.34 15.3561 223.252 15.003 223.077 14.7241C222.902 14.4407 222.643 14.2293 222.301 14.0898C221.959 13.9459 221.539 13.8739 221.039 13.8739H219.393V25H216.053ZM223.833 18.6847L227.274 25H223.63L220.257 18.6847H223.833ZM236.993 11.1818H240.326V20.0948C240.326 21.1249 240.081 22.0223 239.591 22.7869C239.1 23.5471 238.417 24.1364 237.539 24.5547C236.662 24.9685 235.644 25.1754 234.483 25.1754C233.309 25.1754 232.283 24.9685 231.406 24.5547C230.529 24.1364 229.848 23.5471 229.362 22.7869C228.876 22.0223 228.633 21.1249 228.633 20.0948V11.1818H231.973V19.8047C231.973 20.2815 232.077 20.7066 232.283 21.0799C232.495 21.4532 232.789 21.7456 233.167 21.957C233.545 22.1684 233.984 22.2741 234.483 22.2741C234.982 22.2741 235.419 22.1684 235.792 21.957C236.17 21.7456 236.464 21.4532 236.676 21.0799C236.887 20.7066 236.993 20.2815 236.993 19.8047V11.1818Z" fill="white"/>
</svg>
