<svg width="247" height="34" viewBox="0 0 247 34" fill="none" xmlns="http://www.w3.org/2000/svg">
<path d="M18 33H34V30.414H26.723C24.1287 32.106 21.0973 33.0047 18 33ZM18 27.182C17.1431 27.1809 16.3217 26.8401 15.7158 26.2342C15.1099 25.6283 14.7691 24.8069 14.768 23.95C14.7685 23.0928 15.1091 22.2708 15.7151 21.6645C16.321 21.0582 17.1428 20.7171 18 20.716V13.282C17.1431 13.2809 16.3217 12.9401 15.7158 12.3342C15.1099 11.7283 14.7691 10.9069 14.768 10.05C14.7688 9.19297 15.1095 8.37126 15.7154 7.76515C16.3214 7.15905 17.143 6.81806 18 6.817V1C9.163 1 2 8.163 2 17C2 25.837 9.163 33 18 33V27.182V27.182ZM11.05 20.232C10.1931 20.2309 9.37169 19.8901 8.7658 19.2842C8.15991 18.6783 7.81906 17.8569 7.818 17C7.81906 16.1431 8.15991 15.3217 8.7658 14.7158C9.37169 14.1099 10.1931 13.7691 11.05 13.768C11.9072 13.7685 12.7292 14.1091 13.3355 14.7151C13.9418 15.321 14.2829 16.1428 14.284 17C14.2829 17.8569 13.9421 18.6783 13.3362 19.2842C12.7303 19.8901 11.9089 20.2309 11.052 20.232H11.05Z" fill="#E30B13"/>
<path d="M34 17C34 8.163 26.837 1 18 1V6.818C18.8569 6.81906 19.6783 7.15991 20.2842 7.7658C20.8901 8.37169 21.2309 9.19315 21.232 10.05C21.2315 10.9072 20.8909 11.7292 20.2849 12.3355C19.679 12.9418 18.8572 13.2829 18 13.284V20.718C18.857 20.7191 19.6786 21.0601 20.2846 21.6662C20.8905 22.2723 21.2312 23.094 21.232 23.951C21.2304 24.8075 20.8893 25.6285 20.2835 26.2339C19.6777 26.8394 18.8565 27.1799 18 27.181V33C21.218 33 24.214 32.05 26.723 30.414C31.103 27.56 34 22.618 34 17ZM24.95 13.768C25.8067 13.7693 26.6279 14.1103 27.2336 14.7162C27.8392 15.322 28.1799 16.1433 28.181 17C28.1799 17.8569 27.8391 18.6783 27.2332 19.2842C26.6273 19.8901 25.8059 20.2309 24.949 20.232C24.092 20.2312 23.2703 19.8905 22.6642 19.2846C22.058 18.6786 21.7171 17.857 21.716 17C21.7171 16.143 22.058 15.3214 22.6642 14.7154C23.2703 14.1095 24.092 13.7688 24.949 13.768H24.95Z" fill="#CE080F"/>
<path d="M37.6995 25V9.402H40.5375L46.5215 18.444H45.1795L51.1415 9.402H53.9795V25H50.0855V15.914L50.7015 16.09L47.1155 21.48H44.5635L40.9995 16.09L41.6155 15.914V25H37.6995ZM64.3461 25.286C63.1435 25.286 62.0361 25.0807 61.0241 24.67C60.0121 24.2593 59.1248 23.6873 58.3621 22.954C57.6141 22.2207 57.0275 21.3627 56.6021 20.38C56.1768 19.3827 55.9641 18.312 55.9641 17.168C55.9641 16.024 56.1695 14.968 56.5801 14C57.0055 13.0173 57.5921 12.1593 58.3401 11.426C59.0881 10.6927 59.9681 10.128 60.9801 9.732C61.9921 9.32133 63.0995 9.116 64.3021 9.116C65.5048 9.116 66.6121 9.32133 67.6241 9.732C68.6361 10.128 69.5161 10.6927 70.2641 11.426C71.0121 12.1593 71.5915 13.0173 72.0021 14C72.4275 14.9827 72.6401 16.046 72.6401 17.19C72.6401 18.334 72.4275 19.3973 72.0021 20.38C71.5915 21.3627 71.0121 22.228 70.2641 22.976C69.5161 23.7093 68.6361 24.2813 67.6241 24.692C66.6268 25.088 65.5341 25.286 64.3461 25.286ZM64.3021 21.766C65.1821 21.766 65.9448 21.5753 66.5901 21.194C67.2355 20.8127 67.7341 20.2773 68.0861 19.588C68.4381 18.8987 68.6141 18.092 68.6141 17.168C68.6141 16.4933 68.5115 15.8773 68.3061 15.32C68.1155 14.7627 67.8295 14.286 67.4481 13.89C67.0668 13.4793 66.6121 13.164 66.0841 12.944C65.5561 12.724 64.9621 12.614 64.3021 12.614C63.4221 12.614 62.6595 12.8047 62.0141 13.186C61.3688 13.5527 60.8701 14.0807 60.5181 14.77C60.1661 15.4593 59.9901 16.2587 59.9901 17.168C59.9901 17.872 60.0855 18.51 60.2761 19.082C60.4815 19.6393 60.7748 20.1233 61.1561 20.534C61.5375 20.93 61.9921 21.238 62.5201 21.458C63.0481 21.6633 63.6421 21.766 64.3021 21.766ZM77.7336 18.686V15.87H80.7036C81.349 15.87 81.8403 15.716 82.1776 15.408C82.5296 15.0853 82.7056 14.6527 82.7056 14.11C82.7056 13.582 82.5296 13.1567 82.1776 12.834C81.8403 12.4967 81.349 12.328 80.7036 12.328H77.7336V9.402H81.2536C82.3096 9.402 83.2336 9.6 84.0256 9.996C84.8323 10.392 85.463 10.9347 85.9176 11.624C86.3723 12.3133 86.5996 13.12 86.5996 14.044C86.5996 14.968 86.365 15.782 85.8956 16.486C85.441 17.1753 84.803 17.718 83.9816 18.114C83.1603 18.4953 82.1996 18.686 81.0996 18.686H77.7336ZM74.6096 25V9.402H78.5476V25H74.6096ZM83.0576 25L78.5256 18.312L82.0676 17.454L87.6116 25H83.0576ZM88.8967 25V9.402H92.8347V25H88.8967ZM92.0207 25V21.678H100.469V25H92.0207ZM92.0207 18.664V15.43H99.6767V18.664H92.0207ZM92.0207 12.724V9.402H100.337V12.724H92.0207ZM102.69 25V9.402H106.628V25H102.69ZM105.814 25V21.612H113.338V25H105.814ZM115.172 25V9.402H119.11V25H115.172ZM118.296 25V21.612H125.82V25H118.296ZM134.557 25.286C133.354 25.286 132.247 25.0807 131.235 24.67C130.223 24.2593 129.336 23.6873 128.573 22.954C127.825 22.2207 127.238 21.3627 126.813 20.38C126.388 19.3827 126.175 18.312 126.175 17.168C126.175 16.024 126.38 14.968 126.791 14C127.216 13.0173 127.803 12.1593 128.551 11.426C129.299 10.6927 130.179 10.128 131.191 9.732C132.203 9.32133 133.31 9.116 134.513 9.116C135.716 9.116 136.823 9.32133 137.835 9.732C138.847 10.128 139.727 10.6927 140.475 11.426C141.223 12.1593 141.802 13.0173 142.213 14C142.638 14.9827 142.851 16.046 142.851 17.19C142.851 18.334 142.638 19.3973 142.213 20.38C141.802 21.3627 141.223 22.228 140.475 22.976C139.727 23.7093 138.847 24.2813 137.835 24.692C136.838 25.088 135.745 25.286 134.557 25.286ZM134.513 21.766C135.393 21.766 136.156 21.5753 136.801 21.194C137.446 20.8127 137.945 20.2773 138.297 19.588C138.649 18.8987 138.825 18.092 138.825 17.168C138.825 16.4933 138.722 15.8773 138.517 15.32C138.326 14.7627 138.04 14.286 137.659 13.89C137.278 13.4793 136.823 13.164 136.295 12.944C135.767 12.724 135.173 12.614 134.513 12.614C133.633 12.614 132.87 12.8047 132.225 13.186C131.58 13.5527 131.081 14.0807 130.729 14.77C130.377 15.4593 130.201 16.2587 130.201 17.168C130.201 17.872 130.296 18.51 130.487 19.082C130.692 19.6393 130.986 20.1233 131.367 20.534C131.748 20.93 132.203 21.238 132.731 21.458C133.259 21.6633 133.853 21.766 134.513 21.766ZM159.07 25.242C157.882 25.242 156.782 25.044 155.77 24.648C154.758 24.2373 153.871 23.6727 153.108 22.954C152.36 22.2207 151.774 21.3627 151.348 20.38C150.938 19.3973 150.732 18.334 150.732 17.19C150.732 16.0313 150.938 14.968 151.348 14C151.774 13.0173 152.36 12.1667 153.108 11.448C153.871 10.7293 154.751 10.1647 155.748 9.754C156.76 9.34333 157.853 9.138 159.026 9.138C160.258 9.138 161.366 9.336 162.348 9.732C163.331 10.1133 164.196 10.6487 164.944 11.338L162.304 13.978C161.938 13.5673 161.483 13.2447 160.94 13.01C160.398 12.7753 159.76 12.658 159.026 12.658C158.396 12.658 157.816 12.7607 157.288 12.966C156.775 13.1713 156.328 13.4793 155.946 13.89C155.565 14.286 155.264 14.7627 155.044 15.32C154.839 15.8773 154.736 16.5007 154.736 17.19C154.736 17.8793 154.839 18.5027 155.044 19.06C155.264 19.6173 155.565 20.1013 155.946 20.512C156.328 20.908 156.775 21.216 157.288 21.436C157.816 21.6413 158.396 21.744 159.026 21.744C159.76 21.744 160.405 21.634 160.962 21.414C161.52 21.1793 161.996 20.8493 162.392 20.424L165.032 23.064C164.27 23.7533 163.404 24.2887 162.436 24.67C161.483 25.0513 160.361 25.242 159.07 25.242ZM166.735 25V9.402H170.673V25H166.735ZM173.438 25V9.402H176.188L177.376 12.592V25H173.438ZM184.196 25L175.088 13.428L176.188 9.402L185.318 20.974L184.196 25ZM184.196 25L183.184 21.722V9.402H187.122V25H184.196ZM189.895 25V9.402H193.833V25H189.895ZM193.019 25V21.678H201.467V25H193.019ZM193.019 18.664V15.43H200.675V18.664H193.019ZM193.019 12.724V9.402H201.335V12.724H193.019ZM203.688 25V9.402H206.526L212.51 18.444H211.168L217.13 9.402H219.968V25H216.074V15.914L216.69 16.09L213.104 21.48H210.552L206.988 16.09L207.604 15.914V25H203.688ZM221.6 25L227.65 9.402H231.456L237.44 25H233.326L228.816 11.888H230.246L225.626 25H221.6ZM225.274 22.272V19.148H233.876V22.272H225.274Z" fill="white"/>
<path d="M146.801 25.242C146.155 25.242 145.627 25.0293 145.217 24.604C144.806 24.1787 144.601 23.6507 144.601 23.02C144.601 22.3893 144.806 21.8613 145.217 21.436C145.627 21.0107 146.155 20.798 146.801 20.798C147.431 20.798 147.952 21.0107 148.363 21.436C148.773 21.8613 148.979 22.3893 148.979 23.02C148.979 23.6507 148.773 24.1787 148.363 24.604C147.952 25.0293 147.431 25.242 146.801 25.242Z" fill="#E30B13"/>
</svg>
